<svg width="16" height="16" viewBox="0 0 16 16" fill="none" xmlns="http://www.w3.org/2000/svg">
<rect x="0.5" y="0.5" width="15" height="15" fill="white" stroke="#888888"/>
<mask id="path-2-inside-1_3740_36515" fill="white">
<path d="M11 5.5L6.75 9.80485L5 8L4.5 8.5L6.75 10.8091L11.5 6L11 5.5Z"/>
</mask>
<path d="M11 5.5L6.75 9.80485L5 8L4.5 8.5L6.75 10.8091L11.5 6L11 5.5Z" fill="#888888"/>
<path d="M8.75 10.8091V9.80485H4.75V10.8091H8.75ZM11 5.5L13.8284 2.67157L10.9818 -0.175049L8.1535 2.68977L11 5.5ZM6.75 9.80485L3.87827 12.5893L6.72421 15.5245L9.5965 12.6151L6.75 9.80485ZM5 8L7.87173 5.21555L5.04398 2.29916L2.17157 5.17157L5 8ZM4.5 8.5L1.67157 5.67157L-1.12041 8.46356L1.63514 11.2915L4.5 8.5ZM6.75 10.8091L3.88514 13.6006L6.73063 16.5209L9.59587 13.62L6.75 10.8091ZM11.5 6L14.3459 8.81088L17.1394 5.98256L14.3284 3.17157L11.5 6ZM8.1535 2.68977L3.9035 6.99462L9.5965 12.6151L13.8465 8.31023L8.1535 2.68977ZM9.62173 7.0204L7.87173 5.21555L2.12827 10.7845L3.87827 12.5893L9.62173 7.0204ZM2.17157 5.17157L1.67157 5.67157L7.32843 11.3284L7.82843 10.8284L2.17157 5.17157ZM1.63514 11.2915L3.88514 13.6006L9.61486 8.01761L7.36486 5.70849L1.63514 11.2915ZM9.59587 13.62L14.3459 8.81088L8.65413 3.18912L3.90413 7.99824L9.59587 13.62ZM14.3284 3.17157L13.8284 2.67157L8.17157 8.32843L8.67157 8.82843L14.3284 3.17157Z" fill="#888888" mask="url(#path-2-inside-1_3740_36515)"/>
</svg>
