<svg width="16" height="16" viewBox="0 0 16 16" fill="none" xmlns="http://www.w3.org/2000/svg">
<rect x="0.5" y="0.5" width="15" height="15" fill="white" stroke="#888888"/>
<path d="M10.4 9.33333H9.6V10.2222H10.4M10.4 7.55556H9.6V8.44444H10.4M11.2 11.1111H8V10.2222H8.8V9.33333H8V8.44444H8.8V7.55556H8V6.66667H11.2M7.2 5.77778H6.4V4.88889H7.2M7.2 7.55556H6.4V6.66667H7.2M7.2 9.33333H6.4V8.44444H7.2M7.2 11.1111H6.4V10.2222H7.2M5.6 5.77778H4.8V4.88889H5.6M5.6 7.55556H4.8V6.66667H5.6M5.6 9.33333H4.8V8.44444H5.6M5.6 11.1111H4.8V10.2222H5.6M8 5.77778V4H4V12H12V5.77778H8Z" fill="#888888"/>
</svg>
