<svg width="16" height="16" viewBox="0 0 16 16" fill="none" xmlns="http://www.w3.org/2000/svg">
<rect x="0.5" y="0.5" width="15" height="15" fill="white" stroke="#888888"/>
<path d="M7.344 7.056C7.344 7.52 7.184 7.90667 6.864 8.216C6.54933 8.52 6.06667 8.672 5.416 8.672H4.344V11H3.616V5.424H5.416C6.04533 5.424 6.52267 5.576 6.848 5.88C7.17867 6.184 7.344 6.576 7.344 7.056ZM5.416 8.072C5.82133 8.072 6.12 7.984 6.312 7.808C6.504 7.632 6.6 7.38133 6.6 7.056C6.6 6.368 6.20533 6.024 5.416 6.024H4.344V8.072H5.416ZM10.0968 11.056C9.72881 11.056 9.39815 10.992 9.10481 10.864C8.81681 10.7307 8.59015 10.5493 8.42481 10.32C8.25948 10.0853 8.17415 9.816 8.16881 9.512H8.94481C8.97148 9.77333 9.07815 9.99467 9.26481 10.176C9.45681 10.352 9.73415 10.44 10.0968 10.44C10.4435 10.44 10.7155 10.3547 10.9128 10.184C11.1155 10.008 11.2168 9.784 11.2168 9.512C11.2168 9.29867 11.1581 9.12533 11.0408 8.992C10.9235 8.85867 10.7768 8.75733 10.6008 8.688C10.4248 8.61867 10.1875 8.544 9.88881 8.464C9.52081 8.368 9.22481 8.272 9.00081 8.176C8.78215 8.08 8.59281 7.93067 8.43281 7.728C8.27815 7.52 8.20081 7.24267 8.20081 6.896C8.20081 6.592 8.27815 6.32267 8.43281 6.088C8.58748 5.85333 8.80348 5.672 9.08081 5.544C9.36348 5.416 9.68615 5.352 10.0488 5.352C10.5715 5.352 10.9981 5.48267 11.3288 5.744C11.6648 6.00533 11.8541 6.352 11.8968 6.784H11.0968C11.0701 6.57067 10.9581 6.384 10.7608 6.224C10.5635 6.05867 10.3021 5.976 9.97681 5.976C9.67281 5.976 9.42481 6.056 9.23281 6.216C9.04081 6.37067 8.94481 6.58933 8.94481 6.872C8.94481 7.07467 9.00081 7.24 9.11281 7.368C9.23015 7.496 9.37148 7.59467 9.53681 7.664C9.70748 7.728 9.94481 7.80267 10.2488 7.888C10.6168 7.98933 10.9128 8.09067 11.1368 8.192C11.3608 8.288 11.5528 8.44 11.7128 8.648C11.8728 8.85067 11.9528 9.128 11.9528 9.48C11.9528 9.752 11.8808 10.008 11.7368 10.248C11.5928 10.488 11.3795 10.6827 11.0968 10.832C10.8141 10.9813 10.4808 11.056 10.0968 11.056Z" fill="#888888"/>
</svg>
