<svg width="16" height="16" viewBox="0 0 16 16" fill="none" xmlns="http://www.w3.org/2000/svg">
<rect x="0.5" y="0.5" width="15" height="15" fill="white" stroke="#888888"/>
<path d="M8 11.2C7.15131 11.2 6.33737 10.8629 5.73726 10.2627C5.13714 9.66263 4.8 8.84869 4.8 8C4.8 7.15131 5.13714 6.33737 5.73726 5.73726C6.33737 5.13714 7.15131 4.8 8 4.8C8.84869 4.8 9.66263 5.13714 10.2627 5.73726C10.8629 6.33737 11.2 7.15131 11.2 8C11.2 8.84869 10.8629 9.66263 10.2627 10.2627C9.66263 10.8629 8.84869 11.2 8 11.2ZM8 4C7.47471 4 6.95457 4.10346 6.46927 4.30448C5.98396 4.5055 5.54301 4.80014 5.17157 5.17157C4.42143 5.92172 4 6.93913 4 8C4 9.06087 4.42143 10.0783 5.17157 10.8284C5.54301 11.1999 5.98396 11.4945 6.46927 11.6955C6.95457 11.8965 7.47471 12 8 12C9.06087 12 10.0783 11.5786 10.8284 10.8284C11.5786 10.0783 12 9.06087 12 8C12 7.47471 11.8965 6.95457 11.6955 6.46927C11.4945 5.98396 11.1999 5.54301 10.8284 5.17157C10.457 4.80014 10.016 4.5055 9.53073 4.30448C9.04543 4.10346 8.52529 4 8 4ZM8 6C7.46957 6 6.96086 6.21071 6.58579 6.58579C6.21071 6.96086 6 7.46957 6 8C6 8.53043 6.21071 9.03914 6.58579 9.41421C6.96086 9.78929 7.46957 10 8 10C8.53043 10 9.03914 9.78929 9.41421 9.41421C9.78929 9.03914 10 8.53043 10 8C10 7.46957 9.78929 6.96086 9.41421 6.58579C9.03914 6.21071 8.53043 6 8 6Z" fill="#888888"/>
</svg>
