<svg width="16" height="16" viewBox="0 0 16 16" fill="none" xmlns="http://www.w3.org/2000/svg">
<rect x="0.5" y="0.5" width="15" height="15" fill="white" stroke="#888888"/>
<path d="M6.68555 13H12.9999" stroke="#888888" stroke-linecap="round" stroke-linejoin="round"/>
<path d="M3.89225 6.80462C3.32982 6.26597 3.08295 5.93676 3.0097 5.14615C2.94028 4.39684 3.25049 3.62423 3.71687 3.22956C4.36545 2.68072 5.1356 3.1971 5.56627 3.9251C6.03298 4.71401 6.43654 6.99462 6.46741 7.97268C6.50247 9.0832 6.34126 10.0921 5.92644 11.0574C5.64193 11.7194 5.22154 12.4998 4.66201 12.7641C4.15493 13.0037 3.60391 12.9144 3.50185 12.1039C3.37677 11.1106 3.72143 10.1427 4.09822 9.32178C4.5978 8.23332 5.22869 7.33212 6.10242 6.80462C9.47161 4.77046 7.48211 11.3204 8.5995 11.3204C9.71689 11.3204 9.78903 8.10269 10.5724 8.61705C11.3557 9.1314 9.85811 12.3259 12.6613 10.3071" stroke="#888888" stroke-linecap="round" stroke-linejoin="round"/>
</svg>
