<svg width="9" height="8" viewBox="0 0 9 8" fill="none" xmlns="http://www.w3.org/2000/svg">
<path d="M1.6407 3.43875C1.23683 3.09347 1.05956 2.88245 1.00696 2.37567C0.957117 1.89537 1.17987 1.40013 1.51476 1.14715C1.98049 0.795344 2.53351 1.12634 2.84276 1.59298C3.17789 2.09867 3.46768 3.56054 3.48985 4.18747C3.51502 4.8993 3.39926 5.546 3.10139 6.16474C2.89709 6.58907 2.59522 7.08934 2.19344 7.25877C1.82932 7.41234 1.43365 7.3551 1.36036 6.83557C1.27054 6.19884 1.51803 5.57847 1.7886 5.05224C2.14733 4.35454 2.60036 3.77687 3.22775 3.43875C5.64707 2.13486 4.21847 6.33334 5.02083 6.33334C5.8232 6.33334 5.875 4.2708 6.4375 4.6005C7 4.9302 5.9246 6.97784 7.9375 5.68384" stroke="#888888" stroke-linecap="round" stroke-linejoin="round"/>
</svg>
