<svg width="16" height="16" viewBox="0 0 16 16" fill="none" xmlns="http://www.w3.org/2000/svg">
<rect x="0.5" y="0.5" width="15" height="15" fill="white" stroke="#888888"/>
<path d="M11.2 5.68421H9.6V4.84211C9.6 4.61877 9.51571 4.40457 9.36569 4.24665C9.21566 4.08872 9.01217 4 8.8 4H7.2C6.756 4 6.4 4.37474 6.4 4.84211V5.68421H4.8C4.356 5.68421 4 6.05895 4 6.52632V11.1579C4 11.3812 4.08429 11.5954 4.23431 11.7534C4.38434 11.9113 4.58783 12 4.8 12H11.2C11.4122 12 11.6157 11.9113 11.7657 11.7534C11.9157 11.5954 12 11.3812 12 11.1579V6.52632C12 6.30298 11.9157 6.08878 11.7657 5.93086C11.6157 5.77293 11.4122 5.68421 11.2 5.68421ZM7.2 4.84211H8.8V5.68421H7.2V4.84211ZM8 6.94737C8.26522 6.94737 8.51957 7.05827 8.70711 7.25568C8.89464 7.45308 9 7.72082 9 8C9 8.27918 8.89464 8.54692 8.70711 8.74432C8.51957 8.94173 8.26522 9.05263 8 9.05263C7.73478 9.05263 7.48043 8.94173 7.29289 8.74432C7.10536 8.54692 7 8.27918 7 8C7 7.72082 7.10536 7.45308 7.29289 7.25568C7.48043 7.05827 7.73478 6.94737 8 6.94737ZM10 11.1579H6V10.6316C6 10.0505 6.896 9.57895 8 9.57895C9.104 9.57895 10 10.0505 10 10.6316V11.1579Z" fill="#888888"/>
</svg>
