<svg width="24" height="24" viewBox="0 0 24 24" fill="none" xmlns="http://www.w3.org/2000/svg">
<path d="M2.41677 0C1.07546 0 0 0.981818 0 2.18182V19.6364C0 20.8473 1.07546 21.8182 2.41677 21.8182H9.66708V19.6364H2.41677V2.18182H10.8755V7.63636H16.9174V10.9091H19.3342V6.54545L12.0839 0M16.9174 13.0909C16.7603 13.0909 16.6274 13.1891 16.6032 13.32L16.3736 14.76C16.0111 14.9018 15.6607 15.0764 15.3465 15.2727L13.8481 14.7273C13.7152 14.7273 13.5581 14.7273 13.4735 14.8691L12.2651 16.7564C12.1926 16.8764 12.2168 17.0182 12.3376 17.1055L13.6185 18C13.5943 18.1855 13.5822 18.36 13.5822 18.5455C13.5822 18.7309 13.5943 18.9055 13.6185 19.0909L12.3376 19.9855C12.2289 20.0727 12.1926 20.2145 12.2651 20.3345L13.4735 22.2218C13.546 22.3636 13.7031 22.3636 13.8481 22.3636L15.3465 21.8182C15.6607 22.0145 15.999 22.2 16.3736 22.3309L16.6032 23.7709C16.6274 23.9018 16.7482 24 16.9174 24H19.3342C19.4671 24 19.6 23.9018 19.6242 23.7709L19.8538 22.3309C20.2163 22.1891 20.5425 22.0145 20.8688 21.8182L22.3551 22.3636C22.5122 22.3636 22.6693 22.3636 22.7539 22.2218L23.9623 20.3345C24.0348 20.2145 23.9985 20.0727 23.8898 19.9855L22.5968 19.0909C22.621 18.9055 22.6451 18.7309 22.6451 18.5455C22.6451 18.36 22.6331 18.1855 22.5968 18L23.8777 17.1055C23.9864 17.0182 24.0227 16.8764 23.9502 16.7564L22.7418 14.8691C22.6693 14.7273 22.5122 14.7273 22.3551 14.7273L20.8688 15.2727C20.5425 15.0764 20.2163 14.8909 19.8417 14.76L19.6121 13.32C19.6 13.1891 19.4671 13.0909 19.3342 13.0909M18.1258 16.9091C19.1287 16.9091 19.9384 17.64 19.9384 18.5455C19.9384 19.4509 19.1287 20.1818 18.1258 20.1818C17.1107 20.1818 16.3132 19.4509 16.3132 18.5455C16.3132 17.64 17.1228 16.9091 18.1258 16.9091Z" fill="#374957"/>
</svg>
