<svg width="24" height="24" viewBox="0 0 24 24" fill="none" xmlns="http://www.w3.org/2000/svg">
<g clip-path="url(#clip0_2572_27427)">
<path d="M21 3H12.236L8.236 1H3C2.20435 1 1.44129 1.31607 0.87868 1.87868C0.31607 2.44129 0 3.20435 0 4L0 23H24V6C24 5.20435 23.6839 4.44129 23.1213 3.87868C22.5587 3.31607 21.7956 3 21 3ZM3 3H7.764L11.764 5H21C21.2652 5 21.5196 5.10536 21.7071 5.29289C21.8946 5.48043 22 5.73478 22 6V6.881L2 6.994V4C2 3.73478 2.10536 3.48043 2.29289 3.29289C2.48043 3.10536 2.73478 3 3 3ZM2 21V8.994L22 8.881V21H2Z" fill="#374957"/>
</g>
<defs>
<clipPath id="clip0_2572_27427">
<rect width="24" height="24" fill="white"/>
</clipPath>
</defs>
</svg>
